<svg width="96" height="96" xmlns="http://www.w3.org/2000/svg" xmlns:xlink="http://www.w3.org/1999/xlink" xml:space="preserve" overflow="hidden"><g><path d="M32 62C32 66.4183 28.4183 70 24 70 19.5817 70 16 66.4183 16 62 16 57.5817 19.5817 54 24 54 28.4183 54 32 57.5817 32 62Z"/><path d="M80 62C80 66.4183 76.4183 70 72 70 67.5817 70 64 66.4183 64 62 64 57.5817 67.5817 54 72 54 76.4183 54 80 57.5817 80 62Z"/><path d="M39 42 39 30 52.7 30C53.8 30 54.8 30.4 55.5 31.2L66.3 42 39 42ZM35 42 9.7 42 20.5 31.2C21.3 30.4 22.3 30 23.3 30L35 30 35 42ZM82 42 73.7 42C72.6 42 71.6 41.6 70.9 40.8L58.3 28.3C56.8 26.8 54.8 26 52.6 26L23.3 26C21.2 26 19.1 26.8 17.6 28.3L5.2 40.8C4.4 41.6 4 42.6 4 43.7L4 54C4 58.4 7.6 62 12 62L13 62C13 55.9 17.9 51 24 51 30.1 51 35 55.9 35 62L61 62C61 55.9 65.9 51 72 51 78.1 51 83 55.9 83 62L88 62C90.2 62 92 60.2 92 58L92 52C92 46.5 87.5 42 82 42Z"/></g></svg>